<?xml version="1.0" standalone="no"?>
<!DOCTYPE svg PUBLIC "-//W3C//DTD SVG 20010904//EN"
 "http://www.w3.org/TR/2001/REC-SVG-20010904/DTD/svg10.dtd">
<svg version="1.0" xmlns="http://www.w3.org/2000/svg"
 width="200.000000pt" height="200.000000pt" viewBox="0 0 200.000000 200.000000"
 preserveAspectRatio="xMidYMid meet">
<metadata>
Created by potrace 1.11, written by Peter Selinger 2001-2013
</metadata>
<g transform="translate(0.000000,200.000000) scale(0.100000,-0.100000)"
fill="#000000" stroke="none">
<path d="M0 1000 l0 -1000 1000 0 1000 0 0 1000 0 1000 -1000 0 -1000 0 0
-1000z m1115 615 c54 -15 133 -61 178 -103 31 -29 35 -66 10 -94 -24 -27 -50
-22 -117 22 -79 51 -135 70 -207 70 -69 0 -136 -21 -200 -61 -52 -33 -84 -37
-111 -12 -32 29 -23 69 25 104 122 90 271 116 422 74z m-348 -274 c56 -25 143
-108 143 -137 0 -23 -39 -64 -60 -64 -9 0 -42 20 -74 45 -113 87 -214 86 -307
-5 -69 -67 -89 -162 -50 -245 24 -53 59 -84 134 -120 58 -28 62 -32 65 -67 6
-75 -77 -83 -180 -16 -57 36 -90 73 -126 142 -24 46 -27 62 -27 151 0 89 3
105 27 151 49 93 107 143 206 181 55 20 184 12 249 -16z m755 -3 c68 -31 128
-89 165 -160 25 -48 28 -63 28 -153 0 -90 -3 -105 -27 -152 -54 -101 -126
-161 -218 -182 -60 -13 -90 5 -90 54 0 33 4 37 68 69 37 19 79 47 94 63 107
112 58 305 -91 358 -82 29 -143 15 -227 -50 -32 -25 -64 -45 -71 -45 -19 0
-63 45 -63 65 0 21 76 103 114 122 97 51 221 55 318 11z m-704 -570 c8 -8 12
-54 12 -140 0 -120 -1 -128 -21 -139 -16 -8 -28 -8 -45 0 -23 10 -24 14 -24
139 0 134 5 152 45 152 12 0 26 -5 33 -12z m446 -4 c24 -23 23 -240 -1 -266
-21 -23 -38 -23 -63 2 -18 18 -20 33 -20 134 0 121 9 146 50 146 10 0 26 -7
34 -16z m-303 -104 c17 -10 19 -22 19 -141 0 -129 0 -129 -26 -141 -18 -9 -30
-9 -42 -1 -14 8 -17 31 -20 138 -3 152 9 177 69 145z m153 -6 c23 -23 23 -245
0 -268 -18 -19 -45 -21 -62 -4 -17 17 -17 259 0 276 17 17 44 15 62 -4z"/>
</g>
</svg>
