<?xml version="1.0" encoding="utf-8"?>
<!-- Generator: Adobe Illustrator 24.3.0, SVG Export Plug-In . SVG Version: 6.00 Build 0)  -->
<svg version="1.1" id="Laag_1" xmlns="http://www.w3.org/2000/svg" xmlns:xlink="http://www.w3.org/1999/xlink" x="0px" y="0px"
	 viewBox="0 0 24 24" style="enable-background:new 0 0 24 24;" xml:space="preserve">
<style type="text/css">
	.st0{fill:#F9F9F9;}
</style>
<path class="st0" d="M12,2C6.6,2,2,6.6,2,12s4.6,10,10,10s10-4.6,10-10S17.4,2,12,2z M12,7c1.7,0,3,1.3,3,3s-1.3,3-3,3
	c-1.7,0-3-1.3-3-3S10.3,7,12,7z M6.9,16.8c0.9-1.3,2.4-2.2,4.1-2.2h2c1.7,0,3.2,0.9,4.1,2.2C15.8,18.1,14,19,12,19
	S8.2,18.1,6.9,16.8z"/>
</svg>
