<svg id="Laag_1" data-name="Laag 1" xmlns="http://www.w3.org/2000/svg" viewBox="0 0 200 200"><defs><style>.cls-1{fill:#f9f9f9;}</style></defs><g id="Logo"><g id="cloud"><path class="cls-1" d="M24.8,96.57c.08,15.84,10.71,30.09,25.49,34.17,4,1.1,8,1.59,9.6-3.34s-1.62-6.86-5.73-8.35c-11.08-4-17.25-11.9-17.26-22.31,0-9.93,4.69-17.31,13.52-21.72,9.11-4.57,18.74-2.67,27.08,5.15,3.25,3,6.62,5.56,10.47,1.59S89,74.33,86,71.23c-9.79-10.31-25.41-13.5-39.15-8A35.56,35.56,0,0,0,24.8,96.57Zm149.88-.14a36,36,0,0,0-23-33.49c-13.22-5.17-29.17-1.6-38.49,8.59-2.76,3-5.27,6.36-1.73,10.13,3.77,4,7.12,1.82,10.44-1.38,8.21-7.91,17.74-9.67,27.13-5.35a23.56,23.56,0,0,1,13.61,22.33c-.39,10.13-6.35,17.93-17.16,21.79-4.17,1.5-7.2,3.58-5.74,8.35,1.54,5,5.66,4.41,9.6,3.33C164,126.69,174.65,112.33,174.68,96.43ZM97.39,33A48.81,48.81,0,0,0,67.51,43.2c-3.35,2.51-6,5.49-2.84,9.64,3,3.95,6.57,2.59,10.14.13,15.79-10.87,31.75-10.38,46.71,1.49,3.45,2.74,6.77,4.29,10,.34s.71-7.18-2.43-9.86A48.36,48.36,0,0,0,97.39,33Z"/><path class="cls-1" d="M24.8,96.57A35.56,35.56,0,0,1,46.89,63.23c13.74-5.5,29.36-2.31,39.15,8C89,74.33,91.87,77.74,88,81.76s-7.22,1.46-10.47-1.59c-8.34-7.82-18-9.72-27.08-5.15C41.59,79.43,36.9,86.81,36.9,96.74c0,10.41,6.18,18.28,17.26,22.31,4.11,1.49,7.25,3.56,5.73,8.35s-5.62,4.44-9.6,3.34C35.51,126.66,24.88,112.41,24.8,96.57Z"/><path class="cls-1" d="M174.68,96.43c0,15.9-10.64,30.26-25.36,34.3-3.94,1.08-8.06,1.69-9.6-3.33-1.46-4.77,1.57-6.85,5.74-8.35,10.81-3.86,16.77-11.66,17.16-21.79A23.56,23.56,0,0,0,149,74.93c-9.39-4.32-18.92-2.56-27.13,5.35-3.32,3.2-6.67,5.36-10.44,1.38-3.54-3.77-1-7.11,1.73-10.13,9.32-10.19,25.27-13.76,38.49-8.59A36,36,0,0,1,174.68,96.43Z"/><path class="cls-1" d="M97.39,33a48.36,48.36,0,0,1,31.68,11.94c3.14,2.68,5.72,5.83,2.43,9.86s-6.53,2.4-10-.34C106.56,42.59,90.6,42.1,74.81,53c-3.57,2.46-7.09,3.82-10.14-.13-3.2-4.15-.51-7.13,2.84-9.64A48.81,48.81,0,0,1,97.39,33Z"/></g><path class="cls-1" d="M72.37,126.61v21.33c0,6.24,9.7,6.25,9.7,0V126.61c0-6.23-9.7-6.24-9.7,0Z"/><path class="cls-1" d="M87.89,138.25v21.33c0,6.24,9.69,6.25,9.69,0V138.25c0-6.24-9.69-6.25-9.69,0Z"/><path class="cls-1" d="M103.4,138.25v21.33c0,6.24,9.69,6.25,9.69,0V138.25c0-6.24-9.69-6.25-9.69,0Z"/><path class="cls-1" d="M118.91,126.61v21.33c0,6.24,9.7,6.25,9.7,0V126.61c0-6.23-9.7-6.24-9.7,0Z"/></g></svg>