<svg id="Laag_1" data-name="Laag 1" xmlns="http://www.w3.org/2000/svg" viewBox="0 0 160 50"><defs><style>.cls-1,.cls-2{fill:#f9f9f9;}.cls-2{font-size:21px;font-family:Oswald-Bold, Oswald;font-weight:700;}</style></defs><g id="Logo"><g id="cloud"><path class="cls-1" d="M1.28,24.25A12.92,12.92,0,0,0,10.5,36.61c1.44.4,2.91.58,3.47-1.21s-.59-2.48-2.07-3c-4-1.45-6.24-4.3-6.24-8.07a8.28,8.28,0,0,1,4.88-7.85c3.3-1.65,6.78-1,9.8,1.87,1.18,1.1,2.4,2,3.79.57s.36-2.69-.7-3.81A12.93,12.93,0,0,0,1.28,24.25Zm54.2,0a12.93,12.93,0,0,0-22.24-9c-1,1.09-1.91,2.3-.62,3.66s2.57.66,3.77-.5c3-2.86,6.41-3.49,9.81-1.93a8.52,8.52,0,0,1,4.92,8.08c-.14,3.66-2.29,6.48-6.2,7.88-1.51.54-2.61,1.29-2.08,3s2,1.6,3.47,1.21A12.9,12.9,0,0,0,55.48,24.21ZM27.53,1.26A17.7,17.7,0,0,0,16.73,5c-1.21.91-2.19,2-1,3.49s2.38.94,3.67.05C25.08,4.56,30.85,4.73,36.26,9c1.25,1,2.45,1.56,3.61.13s.26-2.6-.88-3.57A17.49,17.49,0,0,0,27.53,1.26Z"/><path class="cls-1" d="M1.28,24.25a12.93,12.93,0,0,1,22.15-9.16c1.06,1.12,2.11,2.35.7,3.81s-2.61.53-3.79-.57c-3-2.83-6.5-3.52-9.8-1.87a8.28,8.28,0,0,0-4.88,7.85c0,3.77,2.23,6.62,6.24,8.07,1.48.54,2.62,1.29,2.07,3s-2,1.61-3.47,1.21A12.92,12.92,0,0,1,1.28,24.25Z"/><path class="cls-1" d="M55.48,24.21a12.9,12.9,0,0,1-9.17,12.4c-1.42.39-2.91.61-3.47-1.21s.57-2.47,2.08-3c3.91-1.4,6.06-4.22,6.2-7.88a8.52,8.52,0,0,0-4.92-8.08c-3.4-1.56-6.84-.93-9.81,1.93-1.2,1.16-2.41,1.94-3.77.5s-.38-2.57.62-3.66a12.93,12.93,0,0,1,22.24,9Z"/><path class="cls-1" d="M27.53,1.26A17.49,17.49,0,0,1,39,5.58c1.14,1,2.07,2.11.88,3.57S37.51,10,36.26,9c-5.41-4.29-11.18-4.46-16.89-.53-1.29.89-2.57,1.38-3.67-.05s-.18-2.58,1-3.49A17.7,17.7,0,0,1,27.53,1.26Z"/></g><path class="cls-1" d="M18.49,35.12v7.71a1.75,1.75,0,0,0,3.5,0V35.12a1.75,1.75,0,0,0-3.5,0Z"/><path class="cls-1" d="M24.1,39.33V47a1.75,1.75,0,0,0,3.5,0V39.33a1.75,1.75,0,0,0-3.5,0Z"/><path class="cls-1" d="M29.71,39.33V47a1.75,1.75,0,0,0,3.5,0V39.33a1.75,1.75,0,0,0-3.5,0Z"/><path class="cls-1" d="M35.32,35.12v7.71a1.75,1.75,0,0,0,3.5,0V35.12a1.75,1.75,0,0,0-3.5,0Z"/></g><text class="cls-2" transform="translate(69.89 31.49)">FoodCloud</text></svg>